<?xml version="1.0" encoding="iso-8859-1"?>
<!-- Generator: Adobe Illustrator 19.0.0, SVG Export Plug-In . SVG Version: 6.00 Build 0)  -->
<svg version="1.1" id="Capa_1" xmlns="http://www.w3.org/2000/svg" xmlns:xlink="http://www.w3.org/1999/xlink" x="0px" y="0px"
	 viewBox="0 0 512 512" style="enable-background:new 0 0 512 512;" xml:space="preserve">
<path style="fill:#303C42;" d="M510.021,343.885L423.229,54.542c-7.271-24.219-33.875-38.5-58-31.25L255.221,56.297
	c-3.646-19.854-21.004-34.964-41.888-34.964c-23.521,0-42.667,19.135-42.667,42.667h-128C19.146,64,0,83.135,0,106.667v320
	c0,23.531,19.146,42.667,42.667,42.667h94.344c8.397,13.083,22.823,21.333,39.052,21.333c4.542,0,9.042-0.656,13.375-1.958
	l289.354-86.813C498.646,395.948,512,378.021,512,357.271C512,352.688,511.333,348.167,510.021,343.885z M229.544,64H192
	c0-11.76,9.563-21.333,21.333-21.333c11.257,0,20.255,8.833,21.04,19.884L229.544,64z"/>
<path style="fill:#FFCA28;" d="M21.333,426.667v-320c0-11.76,9.563-21.333,21.333-21.333h115.772l-82.564,24.771
	c-19.854,5.948-33.208,23.875-33.208,44.625c0,4.583,0.667,9.104,1.979,13.385L128.6,448H42.667
	C30.896,448,21.333,438.427,21.333,426.667z"/>
<path style="opacity:0.1;enable-background:new    ;" d="M106.301,448H128.6L44.646,168.115c-1.313-4.281-1.979-8.802-1.979-13.385
	c0-20.75,13.354-38.677,33.208-44.625l82.564-24.771H84.236l-14.444,4.333c-28.979,8.656-48.458,34.802-48.458,65.063
	c0,6.729,0.979,13.365,2.854,19.479L106.301,448z"/>
<g>
	<path style="fill:#FFFFFF;" d="M472.667,381.458l-289.354,86.813c-13.125,3.948-27.5-3.823-31.458-16.938L65.063,161.948
		c-0.708-2.313-1.063-4.74-1.063-7.219c0-11.25,7.229-20.969,18-24.188l110-33.003v41.128c0,17.646,14.354,32,32,32s32-14.354,32-32
		V78.339l115.354-34.609c2.354-0.708,4.792-1.063,7.25-1.063c11.25,0,20.958,7.24,24.208,18l86.792,289.385
		c0.708,2.313,1.063,4.74,1.063,7.219C490.667,368.521,483.438,378.24,472.667,381.458z"/>
	<path style="fill:#FFFFFF;" d="M213.333,91.139l21.333-6.401v53.928c0,5.885-4.792,10.667-10.667,10.667
		s-10.667-4.781-10.667-10.667V91.139z"/>
</g>
<linearGradient id="SVGID_1_" gradientUnits="userSpaceOnUse" x1="-35.9572" y1="641.5581" x2="-23.6733" y2="629.2742" gradientTransform="matrix(21.3333 0 0 -21.3333 996.3334 13791.667)">
	<stop  offset="0" style="stop-color:#000000;stop-opacity:0.1"/>
	<stop  offset="1" style="stop-color:#000000;stop-opacity:0"/>
</linearGradient>
<path style="fill:url(#SVGID_1_);" d="M490.667,357.271c0-2.479-0.354-4.906-1.063-7.219l-29.323-97.771L279.337,71.337L256,78.339
	v60.328c0,17.646-14.354,32-32,32c-7.928,0-15.1-3.004-20.697-7.797l-0.031,0.096l230.238,230.24l39.156-11.747
	C483.438,378.24,490.667,368.521,490.667,357.271z"/>
<linearGradient id="SVGID_2_" gradientUnits="userSpaceOnUse" x1="-47.5979" y1="640.0085" x2="-23.0271" y2="628.5516" gradientTransform="matrix(21.3333 0 0 -21.3333 996.3334 13791.667)">
	<stop  offset="0" style="stop-color:#FFFFFF;stop-opacity:0.2"/>
	<stop  offset="1" style="stop-color:#FFFFFF;stop-opacity:0"/>
</linearGradient>
<path style="fill:url(#SVGID_2_);" d="M510.021,343.885L423.229,54.542c-7.271-24.219-33.875-38.5-58-31.25L255.221,56.297
	c-3.646-19.854-21.004-34.964-41.888-34.964c-23.521,0-42.667,19.135-42.667,42.667h-128C19.146,64,0,83.135,0,106.667v320
	c0,23.531,19.146,42.667,42.667,42.667h94.344c8.397,13.083,22.823,21.333,39.052,21.333c4.542,0,9.042-0.656,13.375-1.958
	l289.354-86.813C498.646,395.948,512,378.021,512,357.271C512,352.688,511.333,348.167,510.021,343.885z M229.544,64H192
	c0-11.76,9.563-21.333,21.333-21.333c11.257,0,20.255,8.833,21.04,19.884L229.544,64z"/>
<g>
</g>
<g>
</g>
<g>
</g>
<g>
</g>
<g>
</g>
<g>
</g>
<g>
</g>
<g>
</g>
<g>
</g>
<g>
</g>
<g>
</g>
<g>
</g>
<g>
</g>
<g>
</g>
<g>
</g>
</svg>
