<?xml version="1.0" encoding="iso-8859-1"?>
<!-- Generator: Adobe Illustrator 19.0.0, SVG Export Plug-In . SVG Version: 6.00 Build 0)  -->
<svg version="1.1" id="Layer_1" xmlns="http://www.w3.org/2000/svg" xmlns:xlink="http://www.w3.org/1999/xlink" x="0px" y="0px"
	 viewBox="0 0 512 512" style="enable-background:new 0 0 512 512;" xml:space="preserve">
<g>
	<path style="fill:#BCBCBC;" d="M260,488h-8v-5.9h8V488z M260,466.1h-8v-16h8V466.1z M260,434h-8v-16h8V434z M260,402h-8v-16h8V402z
		 M260,369.9h-8v-16h8V369.9z M260,337.9h-8v-16h8V337.9z M260,305.8h-8v-16h8V305.8z M260,273.7h-8v-16h8V273.7z M260,241.7h-8v-16
		h8V241.7z M260,209.6h-8v-16h8V209.6z M260,177.5h-8v-16h8V177.5z M260,145.5h-8v-16h8V145.5z M260,113.4h-8v-16h8V113.4z
		 M260,81.3h-8v-16h8V81.3z M260,49.3h-8v-16h8V49.3z"/>
	<path style="fill:#BCBCBC;" d="M58.1,133.7l-3.6-7.1l15.2-7.7l3.6,7.1L58.1,133.7z M88.4,118.3l-3.6-7.1l15.2-7.7l3.6,7.1
		L88.4,118.3z M118.8,102.9l-3.6-7.1l15.2-7.7l3.6,7.1L118.8,102.9z M149.1,87.5l-3.6-7.1l15.2-7.7l3.6,7.1L149.1,87.5z M179.5,72.1
		l-3.6-7.1l15.2-7.7l3.6,7.1L179.5,72.1z M209.8,56.7l-3.6-7.1l15.2-7.7L225,49L209.8,56.7z M240.2,41.3l-3.6-7.1l1.1-0.6l3.6,7.1
		L240.2,41.3z"/>
	<path style="fill:#BCBCBC;" d="M436.6,127.2l-15.1-7.9l3.7-7.1l15.1,7.9L436.6,127.2z M406.4,111.5l-15.1-7.9l3.7-7.1l15.1,7.9
		L406.4,111.5z M376.2,95.8l-15.1-7.9l3.7-7.1l15.1,7.9L376.2,95.8z M346.1,80L331,72.1l3.7-7.1l15.1,7.9L346.1,80z M315.9,64.3
		l-15.1-7.9l3.7-7.1l15.1,7.9L315.9,64.3z M285.7,48.5l-15.1-7.9l3.7-7.1l15.1,7.9L285.7,48.5z"/>
	<path style="fill:#BCBCBC;" d="M282,248.5l-4-6.9l13.1-7.7l4,6.9L282,248.5z M308.2,233.2l-4-6.9l13.1-7.7l4,6.9L308.2,233.2z
		 M334.5,217.8l-4-6.9l13.1-7.7l4,6.9L334.5,217.8z M360.8,202.5l-4-6.9l13.1-7.7l4,6.9L360.8,202.5z M387,187.2l-4-6.9l13.1-7.7
		l4,6.9L387,187.2z M413.3,171.9l-4-6.9l13.1-7.7l4,6.9L413.3,171.9z M439.6,156.5l-4-6.9l13.1-7.7l4,6.9L439.6,156.5z"/>
	<path style="fill:#BCBCBC;" d="M243.2,255.7l-13.2-7.5l3.9-7l13.2,7.5L243.2,255.7z M216.7,240.7l-13.2-7.5l3.9-7l13.2,7.5
		L216.7,240.7z M190.2,225.7l-13.2-7.5l3.9-7l13.2,7.5L190.2,225.7z M163.7,210.8l-13.2-7.5l3.9-7l13.2,7.5L163.7,210.8z
		 M137.2,195.8l-13.2-7.5l3.9-7l13.2,7.5L137.2,195.8z M110.8,180.8l-13.2-7.5l3.9-7l13.2,7.5L110.8,180.8z M84.3,165.9l-13.2-7.5
		l3.9-7l13.2,7.5L84.3,165.9z M57.8,150.9l-3.5-2l3.9-7l3.5,2L57.8,150.9z"/>
	<path style="fill:#BCBCBC;" d="M471.2,390h-8v-8.7h8V390z M471.2,366.1h-8v-15.2h8V366.1z M471.2,335.7h-8v-15.2h8V335.7z
		 M471.2,305.3h-8v-15.2h8V305.3z M471.2,274.9h-8v-15.2h8V274.9z M471.2,244.4h-8v-15.2h8V244.4z M471.2,214h-8v-15.2h8V214z
		 M471.2,183.6h-8v-15.2h8V183.6z M471.2,153.2h-8V138h8V153.2z"/>
	<path style="fill:#BCBCBC;" d="M48.8,390h-8v-8.7h8V390z M48.8,366.1h-8v-15.2h8V366.1z M48.8,335.7h-8v-15.2h8V335.7z M48.8,305.3
		h-8v-15.2h8V305.3z M48.8,274.9h-8v-15.2h8V274.9z M48.8,244.4h-8v-15.2h8V244.4z M48.8,214h-8v-15.2h8V214z M48.8,183.6h-8v-15.2
		h8V183.6z M48.8,153.2h-8V138h8V153.2z"/>
	<path style="fill:#BCBCBC;" d="M67.1,357.1l-3.6-7.1l15.1-7.7l3.6,7.1L67.1,357.1z M97.4,341.7l-3.6-7.1l15.1-7.7l3.6,7.1
		L97.4,341.7z M127.7,326.3l-3.6-7.1l15.1-7.7l3.6,7.1L127.7,326.3z M158,310.9l-3.6-7.1l15.1-7.7l3.6,7.1L158,310.9z M188.3,295.5
		l-3.6-7.1l15.1-7.7l3.6,7.1L188.3,295.5z M218.6,280.2L215,273l15.1-7.7l3.6,7.1L218.6,280.2z"/>
	<path style="fill:#BCBCBC;" d="M441.3,357.1l-15.1-7.7l3.6-7.1l15.1,7.7L441.3,357.1z M411,341.7l-15.1-7.7l3.6-7.1l15.1,7.7
		L411,341.7z M380.7,326.3l-15.1-7.7l3.6-7.1l15.1,7.7L380.7,326.3z M350.4,310.9l-15.1-7.7l3.6-7.1l15.1,7.7L350.4,310.9z
		 M320.1,295.5l-15.1-7.7l3.6-7.1l15.1,7.7L320.1,295.5z M289.8,280.2l-15.1-7.7l3.6-7.1l15.1,7.7L289.8,280.2z"/>
	<path style="fill:#BCBCBC;" d="M276.3,479.7l-4-6.9l13.2-7.7l4,6.9L276.3,479.7z M302.6,464.4l-4-6.9l13.2-7.7l4,6.9L302.6,464.4z
		 M328.9,449l-4-6.9l13.2-7.7l4,6.9L328.9,449z M355.2,433.7l-4-6.9l13.2-7.7l4,6.9L355.2,433.7z M381.6,418.3l-4-6.9l13.2-7.7
		l4,6.9L381.6,418.3z M407.9,403l-4-6.9l13.2-7.7l4,6.9L407.9,403z M434.2,387.6l-4-6.9l13.2-7.7l4,6.9L434.2,387.6z"/>
	<path style="fill:#BCBCBC;" d="M242,483.6l-13.2-7.6l4-6.9l13.2,7.6L242,483.6z M215.6,468.5l-13.2-7.6l4-6.9l13.2,7.6L215.6,468.5
		z M189.1,453.3l-13.2-7.6l4-6.9l13.2,7.6L189.1,453.3z M162.7,438.2l-13.2-7.6l4-6.9l13.2,7.6L162.7,438.2z M136.3,423l-13.2-7.6
		l4-6.9l13.2,7.6L136.3,423z M109.8,407.9l-13.2-7.6l4-6.9l13.2,7.6L109.8,407.9z M83.4,392.7l-13.2-7.6l4-6.9l13.2,7.6L83.4,392.7z
		 M57,377.6l-2.5-1.4l4-6.9l2.5,1.4L57,377.6z"/>
</g>
<g>
	<circle style="fill:#E81241;" cx="467.2" cy="386.4" r="27.2"/>
	<circle style="fill:#E81241;" cx="44.8" cy="386.4" r="27.2"/>
	<circle style="fill:#E81241;" cx="256" cy="257.6" r="27.2"/>
	<circle style="fill:#E81241;" cx="256" cy="27.2" r="27.2"/>
	<circle style="fill:#E81241;" cx="256" cy="484.8" r="27.2"/>
	<circle style="fill:#E81241;" cx="44.8" cy="134.4" r="27.2"/>
	<circle style="fill:#E81241;" cx="467.2" cy="134.4" r="27.2"/>
</g>
<g>
</g>
<g>
</g>
<g>
</g>
<g>
</g>
<g>
</g>
<g>
</g>
<g>
</g>
<g>
</g>
<g>
</g>
<g>
</g>
<g>
</g>
<g>
</g>
<g>
</g>
<g>
</g>
<g>
</g>
</svg>
