<?xml version="1.0" encoding="iso-8859-1"?>
<!-- Generator: Adobe Illustrator 18.0.0, SVG Export Plug-In . SVG Version: 6.00 Build 0)  -->
<!DOCTYPE svg PUBLIC "-//W3C//DTD SVG 1.1//EN" "http://www.w3.org/Graphics/SVG/1.1/DTD/svg11.dtd">
<svg version="1.1" id="Capa_1" xmlns="http://www.w3.org/2000/svg" xmlns:xlink="http://www.w3.org/1999/xlink" x="0px" y="0px"
	 viewBox="0 0 423.477 423.477" style="enable-background:new 0 0 423.477 423.477;" xml:space="preserve">
<g>
	<g>
		<path style="fill:none;" d="M215.283,323.689c-1.262,0.433-2.576,0.648-3.891,0.648c-1.32,0-2.639-0.218-3.904-0.652
			l-102.242-35.166l-56.293,19.295l162.445,55.873l163.125-55.912l-56.307-19.367L215.283,323.689z"/>
		<path style="fill:none;" d="M215.283,259.652c-1.262,0.433-2.576,0.648-3.891,0.648c-1.32,0-2.639-0.218-3.904-0.652
			l-102.242-35.166l-56.295,19.295l162.447,55.873l163.125-55.912l-56.309-19.366L215.283,259.652z"/>
		<path style="fill:none;" d="M215.283,195.615c-1.262,0.433-2.576,0.648-3.891,0.648c-1.32,0-2.639-0.218-3.904-0.652
			l-102.242-35.166L48.953,179.74l162.445,55.873l163.125-55.912l-56.307-19.367L215.283,195.615z"/>
		<polygon style="fill:#73D0F4;" points="374.523,115.664 212.076,59.791 48.951,115.703 211.398,171.576 		"/>
		<path style="fill:#3D6889;" d="M423.477,179.727c0.002-5.126-3.25-9.688-8.098-11.355l-60.203-20.707l60.191-20.631
			c4.848-1.662,8.105-6.22,8.109-11.346c0.002-5.125-3.25-9.687-8.098-11.354l-199.393-68.58c-2.525-0.868-5.27-0.872-7.795-0.004
			L8.108,104.332c-4.849,1.662-8.106,6.22-8.108,11.346c-0.004,5.125,3.25,9.687,8.097,11.354l60.204,20.707L8.109,168.369
			c-4.85,1.662-8.107,6.22-8.109,11.345c-0.004,5.126,3.25,9.688,8.097,11.355l60.204,20.707L8.108,232.406
			C3.26,234.068,0.002,238.625,0,243.75c-0.004,5.126,3.25,9.688,8.097,11.355l60.204,20.707L8.109,296.443
			c-4.85,1.662-8.107,6.22-8.109,11.345c-0.004,5.126,3.25,9.688,8.097,11.354l199.392,68.58c1.266,0.435,2.584,0.652,3.904,0.652
			c1.314,0,2.629-0.216,3.891-0.648l200.084-68.58c4.848-1.662,8.105-6.22,8.109-11.345c0.002-5.126-3.25-9.688-8.098-11.354
			l-60.203-20.707l60.191-20.631c4.848-1.662,8.105-6.22,8.109-11.346c0.002-5.125-3.25-9.687-8.098-11.354l-60.203-20.707
			l60.191-20.631C420.215,189.41,423.473,184.852,423.477,179.727z M48.951,115.703l163.125-55.912l162.447,55.873l-163.125,55.912
			L48.951,115.703z M374.523,307.775l-163.125,55.912L48.953,307.814l56.293-19.295l102.242,35.166
			c1.266,0.435,2.584,0.652,3.904,0.652c1.314,0,2.629-0.216,3.891-0.648l102.934-35.281L374.523,307.775z M374.523,243.738
			L211.398,299.65L48.951,243.777l56.295-19.295l102.242,35.166c1.266,0.435,2.584,0.652,3.904,0.652
			c1.314,0,2.629-0.216,3.891-0.648l102.932-35.28L374.523,243.738z M211.398,235.613L48.953,179.74l56.293-19.295l102.242,35.166
			c1.266,0.434,2.584,0.652,3.904,0.652c1.314,0,2.629-0.216,3.891-0.648l102.934-35.281l56.307,19.367L211.398,235.613z"/>
	</g>
</g>
<g>
</g>
<g>
</g>
<g>
</g>
<g>
</g>
<g>
</g>
<g>
</g>
<g>
</g>
<g>
</g>
<g>
</g>
<g>
</g>
<g>
</g>
<g>
</g>
<g>
</g>
<g>
</g>
<g>
</g>
</svg>
