<?xml version="1.0" encoding="iso-8859-1"?>
<!-- Generator: Adobe Illustrator 19.0.0, SVG Export Plug-In . SVG Version: 6.00 Build 0)  -->
<svg version="1.1" id="Capa_1" xmlns="http://www.w3.org/2000/svg" xmlns:xlink="http://www.w3.org/1999/xlink" x="0px" y="0px"
	 viewBox="0 0 512 512" style="enable-background:new 0 0 512 512;" xml:space="preserve">
<g>
	<g>
		<path d="M76.8,0H8.533C3.823,0,0,3.814,0,8.533V76.8c0,4.719,3.823,8.533,8.533,8.533H76.8c4.71,0,8.533-3.814,8.533-8.533V8.533
			C85.333,3.814,81.51,0,76.8,0z M68.267,68.267h-51.2v-51.2h51.2V68.267z"/>
	</g>
</g>
<g>
	<g>
		<path d="M76.8,426.667H8.533c-4.71,0-8.533,3.814-8.533,8.533v68.267C0,508.186,3.823,512,8.533,512H76.8
			c4.71,0,8.533-3.814,8.533-8.533V435.2C85.333,430.481,81.51,426.667,76.8,426.667z M68.267,494.933h-51.2v-51.2h51.2V494.933z"/>
	</g>
</g>
<g>
	<g>
		<path d="M503.467,0H435.2c-4.71,0-8.533,3.814-8.533,8.533V76.8c0,4.719,3.823,8.533,8.533,8.533h68.267
			c4.71,0,8.533-3.814,8.533-8.533V8.533C512,3.814,508.177,0,503.467,0z M494.933,68.267h-51.2v-51.2h51.2V68.267z"/>
	</g>
</g>
<g>
	<g>
		<path d="M503.467,426.667H435.2c-4.71,0-8.533,3.814-8.533,8.533v68.267c0,4.719,3.823,8.533,8.533,8.533h68.267
			c4.71,0,8.533-3.814,8.533-8.533V435.2C512,430.481,508.177,426.667,503.467,426.667z M494.933,494.933h-51.2v-51.2h51.2V494.933z
			"/>
	</g>
</g>
<g>
	<g>
		<g>
			<path d="M128,460.8h-17.067c-4.71,0-8.533,3.814-8.533,8.533s3.823,8.533,8.533,8.533H128c4.71,0,8.533-3.814,8.533-8.533
				S132.71,460.8,128,460.8z"/>
			<path d="M85.333,34.133H76.8c-4.71,0-8.533,3.814-8.533,8.533V51.2c0,4.719,3.823,8.533,8.533,8.533s8.533-3.814,8.533-8.533
				c4.71,0,8.533-3.814,8.533-8.533S90.044,34.133,85.333,34.133z"/>
			<path d="M145.067,34.133h-25.6c-4.71,0-8.533,3.814-8.533,8.533s3.823,8.533,8.533,8.533h25.6c4.71,0,8.533-3.814,8.533-8.533
				S149.777,34.133,145.067,34.133z"/>
			<path d="M238.933,460.8h-17.067c-4.71,0-8.533,3.814-8.533,8.533s3.823,8.533,8.533,8.533h17.067c4.71,0,8.533-3.814,8.533-8.533
				S243.644,460.8,238.933,460.8z"/>
			<path d="M59.733,426.667H51.2c0-4.719-3.823-8.533-8.533-8.533c-4.71,0-8.533,3.814-8.533,8.533v8.533
				c0,4.719,3.823,8.533,8.533,8.533h17.067c4.71,0,8.533-3.814,8.533-8.533S64.444,426.667,59.733,426.667z"/>
			<path d="M187.733,460.8h-25.6c-4.71,0-8.533,3.814-8.533,8.533s3.823,8.533,8.533,8.533h25.6c4.71,0,8.533-3.814,8.533-8.533
				S192.444,460.8,187.733,460.8z"/>
			<path d="M42.667,298.667c4.71,0,8.533-3.814,8.533-8.533v-25.6c0-4.719-3.823-8.533-8.533-8.533c-4.71,0-8.533,3.814-8.533,8.533
				v25.6C34.133,294.852,37.956,298.667,42.667,298.667z"/>
			<path d="M42.667,238.933c4.71,0,8.533-3.814,8.533-8.533v-17.067c0-4.719-3.823-8.533-8.533-8.533
				c-4.71,0-8.533,3.814-8.533,8.533V230.4C34.133,235.119,37.956,238.933,42.667,238.933z"/>
			<path d="M42.667,187.733c4.71,0,8.533-3.814,8.533-8.533v-17.067c0-4.719-3.823-8.533-8.533-8.533
				c-4.71,0-8.533,3.814-8.533,8.533V179.2C34.133,183.919,37.956,187.733,42.667,187.733z"/>
			<path d="M42.667,136.533c4.71,0,8.533-3.814,8.533-8.533v-25.6c0-4.719-3.823-8.533-8.533-8.533c-4.71,0-8.533,3.814-8.533,8.533
				V128C34.133,132.719,37.956,136.533,42.667,136.533z"/>
			<path d="M42.667,349.867c4.71,0,8.533-3.814,8.533-8.533v-17.067c0-4.719-3.823-8.533-8.533-8.533
				c-4.71,0-8.533,3.814-8.533,8.533v17.067C34.133,346.052,37.956,349.867,42.667,349.867z"/>
			<path d="M247.467,34.133H230.4c-4.71,0-8.533,3.814-8.533,8.533S225.69,51.2,230.4,51.2h17.067c4.71,0,8.533-3.814,8.533-8.533
				S252.177,34.133,247.467,34.133z"/>
			<path d="M42.667,401.067c4.71,0,8.533-3.814,8.533-8.533v-17.067c0-4.719-3.823-8.533-8.533-8.533
				c-4.71,0-8.533,3.814-8.533,8.533v17.067C34.133,397.252,37.956,401.067,42.667,401.067z"/>
			<path d="M196.267,34.133H179.2c-4.71,0-8.533,3.814-8.533,8.533S174.49,51.2,179.2,51.2h17.067c4.71,0,8.533-3.814,8.533-8.533
				S200.977,34.133,196.267,34.133z"/>
			<path d="M469.333,256c-4.71,0-8.533,3.814-8.533,8.533v25.6c0,4.719,3.823,8.533,8.533,8.533s8.533-3.814,8.533-8.533v-25.6
				C477.867,259.814,474.044,256,469.333,256z"/>
			<path d="M469.333,366.933c-4.71,0-8.533,3.814-8.533,8.533v17.067c0,4.719,3.823,8.533,8.533,8.533s8.533-3.814,8.533-8.533
				v-17.067C477.867,370.748,474.044,366.933,469.333,366.933z"/>
			<path d="M469.333,315.733c-4.71,0-8.533,3.814-8.533,8.533v17.067c0,4.719,3.823,8.533,8.533,8.533s8.533-3.814,8.533-8.533
				v-17.067C477.867,319.548,474.044,315.733,469.333,315.733z"/>
			<path d="M469.333,204.8c-4.71,0-8.533,3.814-8.533,8.533V230.4c0,4.719,3.823,8.533,8.533,8.533s8.533-3.814,8.533-8.533v-17.067
				C477.867,208.614,474.044,204.8,469.333,204.8z"/>
			<path d="M469.333,93.867c-4.71,0-8.533,3.814-8.533,8.533V128c0,4.719,3.823,8.533,8.533,8.533s8.533-3.814,8.533-8.533v-25.6
				C477.867,97.681,474.044,93.867,469.333,93.867z"/>
			<path d="M469.333,153.6c-4.71,0-8.533,3.814-8.533,8.533V179.2c0,4.719,3.823,8.533,8.533,8.533s8.533-3.814,8.533-8.533v-17.067
				C477.867,157.414,474.044,153.6,469.333,153.6z"/>
			<path d="M401.067,460.8H384c-4.71,0-8.533,3.814-8.533,8.533s3.823,8.533,8.533,8.533h17.067c4.71,0,8.533-3.814,8.533-8.533
				S405.777,460.8,401.067,460.8z"/>
			<path d="M349.867,460.8h-25.6c-4.71,0-8.533,3.814-8.533,8.533s3.823,8.533,8.533,8.533h25.6c4.71,0,8.533-3.814,8.533-8.533
				S354.577,460.8,349.867,460.8z"/>
			<path d="M307.2,34.133h-25.6c-4.71,0-8.533,3.814-8.533,8.533S276.89,51.2,281.6,51.2h25.6c4.71,0,8.533-3.814,8.533-8.533
				S311.91,34.133,307.2,34.133z"/>
			<path d="M358.4,34.133h-17.067c-4.71,0-8.533,3.814-8.533,8.533s3.823,8.533,8.533,8.533H358.4c4.71,0,8.533-3.814,8.533-8.533
				S363.11,34.133,358.4,34.133z"/>
			<path d="M290.133,460.8h-17.067c-4.71,0-8.533,3.814-8.533,8.533s3.823,8.533,8.533,8.533h17.067c4.71,0,8.533-3.814,8.533-8.533
				S294.844,460.8,290.133,460.8z"/>
			<path d="M409.6,34.133h-17.067c-4.71,0-8.533,3.814-8.533,8.533s3.823,8.533,8.533,8.533H409.6c4.71,0,8.533-3.814,8.533-8.533
				S414.31,34.133,409.6,34.133z"/>
			<path d="M469.333,418.133c-4.71,0-8.533,3.814-8.533,8.533h-8.533c-4.71,0-8.533,3.814-8.533,8.533s3.823,8.533,8.533,8.533
				h17.067c4.71,0,8.533-3.814,8.533-8.533v-8.533C477.867,421.948,474.044,418.133,469.333,418.133z"/>
		</g>
	</g>
</g>
<g>
</g>
<g>
</g>
<g>
</g>
<g>
</g>
<g>
</g>
<g>
</g>
<g>
</g>
<g>
</g>
<g>
</g>
<g>
</g>
<g>
</g>
<g>
</g>
<g>
</g>
<g>
</g>
<g>
</g>
</svg>
