<?xml version="1.0" encoding="iso-8859-1"?>
<!-- Generator: Adobe Illustrator 19.0.0, SVG Export Plug-In . SVG Version: 6.00 Build 0)  -->
<svg version="1.1" id="Layer_1" xmlns="http://www.w3.org/2000/svg" xmlns:xlink="http://www.w3.org/1999/xlink" x="0px" y="0px"
	 viewBox="0 0 512.001 512.001" style="enable-background:new 0 0 512.001 512.001;" xml:space="preserve">
<path style="fill:#A680FF;" d="M507.606,245.394l-96-96c-4.289-4.291-10.743-5.572-16.347-3.252
	c-5.605,2.322-9.26,7.792-9.26,13.858v49h-56.682c-8.284,0-15,6.716-15,15v64c0,8.284,6.716,15,15,15H386v49
	c0,6.067,3.654,11.537,9.26,13.858c1.855,0.769,3.805,1.142,5.737,1.142c3.903,0,7.74-1.524,10.609-4.394l96-96
	C513.466,260.749,513.466,251.252,507.606,245.394z"/>
<g>
	<path style="fill:#B999FF;" d="M182.682,209h-56.681v-49c0-6.067-3.655-11.537-9.26-13.858c-5.607-2.322-12.058-1.038-16.347,3.252
		l-96,96c-5.858,5.858-5.858,15.355,0,21.213l96,96c2.87,2.87,6.706,4.394,10.61,4.394c1.932,0,3.881-0.374,5.737-1.142
		c5.605-2.322,9.26-7.792,9.26-13.858v-49h56.681c8.284,0,15-6.716,15-15v-64C197.682,215.716,190.965,209,182.682,209z"/>
	<path style="fill:#B999FF;" d="M365.858,395.26c-2.322-5.605-7.791-9.26-13.858-9.26h-49v-56.681c0-8.284-6.716-15-15-15h-64
		c-8.284,0-15,6.716-15,15V386h-49c-6.067,0-11.537,3.655-13.858,9.26s-1.038,12.057,3.252,16.347l96,96
		C248.323,510.536,252.161,512,256,512s7.678-1.464,10.606-4.394l96-96C366.896,407.317,368.18,400.865,365.858,395.26z"/>
</g>
<path style="fill:#A680FF;" d="M352,386h-49v-56.681c0-8.284-6.716-15-15-15h-32V512c3.839,0,7.678-1.464,10.606-4.394l96-96
	c4.29-4.29,5.573-10.742,3.252-16.347C363.536,389.655,358.067,386,352,386z"/>
<path style="fill:#B999FF;" d="M362.606,100.394l-96-96c-5.857-5.858-15.355-5.858-21.213,0l-96,96
	c-4.29,4.29-5.574,10.742-3.252,16.347S153.934,126,160.001,126h49v56.681c0,8.284,6.716,15,15,15h64c8.284,0,15-6.716,15-15V126h49
	c6.067,0,11.536-3.655,13.858-9.26C368.18,111.135,366.896,104.684,362.606,100.394z"/>
<path style="fill:#A680FF;" d="M288,197.681c8.284,0,15-6.716,15-15V126h49c6.067,0,11.536-3.655,13.858-9.26
	c2.321-5.605,1.038-12.057-3.252-16.347l-96-96C263.678,1.465,259.839,0,256,0v197.681H288z"/>
<path style="fill:#5C5F66;" d="M349.81,241c-6.43-40.39-38.42-72.38-78.81-78.81c-4.89-0.79-9.9-1.19-15-1.19
	c-5.1,0-10.11,0.4-15,1.19c-40.39,6.43-72.38,38.42-78.81,78.81c-0.79,4.89-1.19,9.9-1.19,15c0,5.1,0.4,10.11,1.19,15
	c6.43,40.39,38.42,72.38,78.81,78.81c4.89,0.79,9.9,1.19,15,1.19c5.1,0,10.11-0.4,15-1.19c40.39-6.43,72.38-38.42,78.81-78.81
	c0.79-4.89,1.19-9.9,1.19-15C351,250.9,350.6,245.89,349.81,241z"/>
<path style="fill:#53565C;" d="M271,349.81c40.39-6.43,72.38-38.42,78.81-78.81c0.79-4.89,1.19-9.9,1.19-15c0-5.1-0.4-10.11-1.19-15
	c-6.43-40.39-38.42-72.38-78.81-78.81c-4.89-0.79-9.9-1.19-15-1.19v190C261.1,351,266.11,350.6,271,349.81z"/>
<path style="fill:#A1A7B3;" d="M239.001,256c0,8.28-6.72,15-15,15h-61.81c-0.79-4.89-1.19-9.9-1.19-15c0-5.1,0.4-10.11,1.19-15
	h61.81C232.281,241,239.001,247.72,239.001,256z"/>
<path style="fill:#979CA7;" d="M351,256c0,5.1-0.4,10.11-1.19,15H288c-8.28,0-15-6.72-15-15c0-8.28,6.72-15,15-15h61.81
	C350.6,245.89,351,250.9,351,256z"/>
<g>
	<path style="fill:#A1A7B3;" d="M271,288v61.81c-4.89,0.79-9.9,1.19-15,1.19c-5.1,0-10.11-0.4-15-1.19V288c0-8.28,6.72-15,15-15
		C264.28,273,271,279.72,271,288z"/>
	<path style="fill:#A1A7B3;" d="M271,162.19V224c0,8.28-6.72,15-15,15c-8.28,0-15-6.72-15-15v-61.81c4.89-0.79,9.9-1.19,15-1.19
		C261.1,161,266.11,161.4,271,162.19z"/>
</g>
<g>
	<path style="fill:#979CA7;" d="M271,349.81V288c0-8.28-6.72-15-15-15v78C261.1,351,266.11,350.6,271,349.81z"/>
	<path style="fill:#979CA7;" d="M271,224v-61.81c-4.89-0.79-9.9-1.19-15-1.19v78C264.28,239,271,232.28,271,224z"/>
</g>
<g>
</g>
<g>
</g>
<g>
</g>
<g>
</g>
<g>
</g>
<g>
</g>
<g>
</g>
<g>
</g>
<g>
</g>
<g>
</g>
<g>
</g>
<g>
</g>
<g>
</g>
<g>
</g>
<g>
</g>
</svg>
