<?xml version="1.0" encoding="iso-8859-1"?>
<!-- Generator: Adobe Illustrator 19.0.0, SVG Export Plug-In . SVG Version: 6.00 Build 0)  -->
<svg version="1.1" id="Capa_1" xmlns="http://www.w3.org/2000/svg" xmlns:xlink="http://www.w3.org/1999/xlink" x="0px" y="0px"
	 viewBox="0 0 512 512" style="enable-background:new 0 0 512 512;" xml:space="preserve">
<path style="fill:#303C42;" d="M256,0C114.844,0,0,114.844,0,256s114.844,256,256,256s256-114.844,256-256S397.156,0,256,0z"/>
<path style="fill:#7CB342;" d="M256,21.333c15.046,0,29.665,1.702,43.926,4.438C306.849,31.81,319.815,45.526,320,64
	c0.082,8.238-1.646,9.021-6.542,11.313c-5.167,2.417-14.792,6.917-14.792,20.688c0,12.604,11.458,22.125,23.583,32.208
	c6.938,5.771,17.115,14.229,18.833,19.667c-3.708,3.198-15.375,8.354-24.094,12.208c-28.188,12.469-68.76,30.417-79.583,66.25
	c-10.146-4.906-18.573-3.76-24.573-1.281C198.625,230.938,192,247,192,256c0,13.563,14.365,14.854,20.5,15.406
	c11.5,1.031,11.5,2.063,11.5,5.927c0,19.281,14.43,34.561,25.434,43.48c-21.549-9.158-81.585-59.664-102.944-82.73
	c-18.531-20.01-18.521-25.979-18.49-72.375V160c0-35.316-0.242-73.953-15.711-89.108C152.046,39.956,201.839,21.333,256,21.333z"/>
<path style="fill:#BBDEFB;" d="M266.809,490.118c-3.591,0.23-7.16,0.548-10.809,0.548C126.604,490.667,21.333,385.396,21.333,256
	c0-67.539,28.846-128.327,74.667-171.181v0.514c4.865,0,10.667,12.958,10.667,74.667v5.698
	c-0.031,47.865-0.042,60.729,24.177,86.885c21.198,22.896,84.281,76.885,110.333,87.906c2.594,1.104,3.583,1.958,3.76,1.958
	c-0.042,1.656-2.167,5.969-3.583,8.854c-2.979,6.052-6.688,13.583-6.688,22.031c0,12.833,12.323,26.813,25.375,41.615
	c6.177,7.01,16.521,18.74,17.292,22.385C277.333,446.542,270.802,475.354,266.809,490.118z"/>
<path style="fill:#7CB342;" d="M299.797,486.202c-3.574,0.638-7.125,1.345-10.743,1.859c3.026-11.62,9.613-38.276,9.613-50.728
	c0-10.313-8.594-20.583-22.625-36.5c-6.938-7.865-19.844-22.5-20.042-27.5c0-3.479,2.281-8.115,4.49-12.604
	c3.75-7.604,8-16.229,4.521-25.573c-0.888-2.378-2.564-4.341-4.285-6.288c0.139,0.083,0.466,0.292,0.566,0.35
	c4.51,2.635,10.229,1.604,13.573-2.396c0.052-0.063,6.125-6.823,12.156-6.917c4.604,1.198,20.802,13.448,31.531,21.563
	c26.115,19.76,42.729,31.865,54.781,31.865c8.469,0,10.667,2.198,10.729,9.865C382.013,393.534,336.415,467.108,299.797,486.202z"/>
<path style="fill:#BBDEFB;" d="M349.224,471.246c28.966-31.154,56.109-75.117,56.109-87.246c0-20.333-11.656-32-31.844-32h-0.01
	c-6.521-0.667-28.771-17.49-42.063-27.542c-24.74-18.719-34.885-25.792-43.417-25.792c-9.406,0-17.094,4.01-22.271,7.833
	c-8.573-6.469-20.396-17.885-20.396-29.167c0-23.427-20.719-26.219-29.854-27.083c1.375-2.333,3.323-4.615,5.615-5.531
	c5.25-2.052,12.74,4.198,16.698,8.156c3.063,3.063,7.635,4,11.625,2.313c3.99-1.646,6.583-5.542,6.583-9.854
	c0-34.948,40.24-52.74,69.615-65.74c21.51-9.51,37.052-16.385,37.052-30.26c0-15.271-14.229-27.094-26.781-37.531
	c-5.698-4.74-15.229-12.656-16.385-15.604c0.417-0.354,1.906-1.063,3-1.573c6.583-3.083,18.833-8.813,18.833-30.625
	c0-11.501-3.28-21.247-7.461-29.104C425.049,67.115,490.667,153.931,490.667,256C490.667,352.271,432.349,435.102,349.224,471.246z"
	/>
<path style="fill:#303C42;" d="M261.354,128.708c2.396,0,5.031-0.313,7.896-1.031c15.177-3.792,17.896-19.188,19.875-30.438
	c0.719-4.104,2.073-11.75,3.646-13.031c2.865-1.438,4.938-4.083,5.635-7.208c0.698-3.125-0.042-6.406-2.021-8.927
	c-8.5-10.813-22.5-9.688-33.01-3.875C247.969,66.021,234.667,80.354,234.667,96c0,5.604,1.115,19.51,11.469,27.594
	C249.385,126.135,254.396,128.708,261.354,128.708z"/>
<path style="fill:#BBDEFB;" d="M266.667,85.333c1.083,0,2.156-0.167,3.188-0.49c-0.729,2.958-1.25,5.917-1.74,8.698
	c-0.625,3.563-2.292,13.01-4.031,13.448c-2.292,0.552-3.917,0.5-4.813-0.208C257.646,105.51,256,101.406,256,96
	C256,90.51,262.01,85.333,266.667,85.333z"/>
<path style="opacity:0.2;fill:#FFFFFF;enable-background:new    ;" d="M431.595,100.938c-26.228-29.574-59.698-52.605-97.723-66.042
	c2.543,4.779,4.643,10.341,5.984,16.488C374.259,60.921,405.452,78.046,431.595,100.938z"/>
<path style="opacity:0.1;enable-background:new    ;" d="M252.79,406.57c-22.544,7.224-46.523,11.203-71.435,11.203
	c-44.901,0-86.746-12.9-122.447-34.862C100.733,447.635,173.371,490.667,256,490.667c3.648,0,7.217-0.318,10.809-0.548
	c3.993-14.764,10.525-43.577,10.525-52.785c-0.771-3.646-11.115-15.375-17.292-22.385C257.544,412.115,255.154,409.34,252.79,406.57
	z M373.333,373.333c-8.529,0-19.547-6.303-34.395-16.85c-19.073,17.352-40.862,31.741-64.854,42.107
	c0.632,0.719,1.395,1.605,1.957,2.243c14.031,15.917,22.625,26.188,22.625,36.5c0,12.452-6.587,39.108-9.613,50.728
	c3.618-0.514,7.169-1.221,10.743-1.859c36.618-19.094,82.216-92.668,84.266-103.004C384,375.531,381.802,373.333,373.333,373.333z
	 M378.553,56.375c23.603,36.598,37.469,80.04,37.469,126.732c0,60.944-23.549,116.355-61.777,158.118
	c8.332,5.784,15.875,10.431,19.234,10.775h0.01c20.188,0,31.844,11.667,31.844,32c0,12.129-27.143,56.092-56.109,87.246
	C432.349,435.102,490.667,352.271,490.667,256C490.667,171.56,445.69,97.66,378.553,56.375z"/>
<linearGradient id="SVGID_1_" gradientUnits="userSpaceOnUse" x1="-45.5784" y1="639.555" x2="-23.8278" y2="629.4138" gradientTransform="matrix(21.3333 0 0 -21.3333 996.3334 13791.667)">
	<stop  offset="0" style="stop-color:#FFFFFF;stop-opacity:0.2"/>
	<stop  offset="1" style="stop-color:#FFFFFF;stop-opacity:0"/>
</linearGradient>
<path style="fill:url(#SVGID_1_);" d="M256,0C114.844,0,0,114.844,0,256s114.844,256,256,256s256-114.844,256-256S397.156,0,256,0z"
	/>
<g>
</g>
<g>
</g>
<g>
</g>
<g>
</g>
<g>
</g>
<g>
</g>
<g>
</g>
<g>
</g>
<g>
</g>
<g>
</g>
<g>
</g>
<g>
</g>
<g>
</g>
<g>
</g>
<g>
</g>
</svg>
