<?xml version="1.0" encoding="iso-8859-1"?>
<!-- Generator: Adobe Illustrator 19.0.0, SVG Export Plug-In . SVG Version: 6.00 Build 0)  -->
<svg version="1.1" id="Capa_1" xmlns="http://www.w3.org/2000/svg" xmlns:xlink="http://www.w3.org/1999/xlink" x="0px" y="0px"
	 viewBox="0 0 416.418 416.418" style="enable-background:new 0 0 416.418 416.418;" xml:space="preserve">
<circle style="fill:#00E7FF;" cx="158.715" cy="160.422" r="151.893"/>
<path style="fill:#602F75;" d="M158.72,319.142C71.2,319.142,0,247.942,0,160.422S71.2,1.702,158.72,1.702
	s158.72,71.2,158.72,158.72S246.24,319.142,158.72,319.142z M158.72,15.356c-79.99,0-145.067,65.073-145.067,145.067
	S78.73,305.489,158.72,305.489s145.067-65.073,145.067-145.067S238.71,15.356,158.72,15.356z"/>
<path style="fill:#FFFFFF;" d="M12.853,118.078c13.082,2.77,25.339,7.02,28.582,13.505c7.69,15.382,23.072,15.382,38.455,0
	s38.455-30.763,15.382-53.835c-11.513-11.513-15.299-30.51-16.203-46.657C47.38,50.646,23.448,81.521,12.853,118.078z"/>
<path style="fill:#602F75;" d="M57.733,149.942c-1.263,0-2.514-0.101-3.739-0.3c-5.54-0.899-13.276-4.233-18.664-15.007
	c-0.273-0.553-3.287-5.513-23.893-9.88c-1.857-0.393-3.463-1.546-4.441-3.173c-0.973-1.626-1.227-3.587-0.7-5.407
	C17.27,78.328,41.839,46.048,75.479,25.282c2.043-1.266,4.613-1.353,6.743-0.247c2.133,1.113,3.523,3.267,3.661,5.673
	c0.759,13.534,3.843,31.84,14.213,42.213c8.037,8.033,11.884,15.986,11.761,24.32c-0.207,13.699-11.419,24.26-21.313,33.574
	c-1.99,1.874-3.966,3.734-5.827,5.593C75.887,145.236,66.447,149.942,57.733,149.942z M21.579,113.129
	c14.324,3.806,22.647,8.767,25.964,15.399c2.249,4.5,5.156,7.074,8.637,7.634c5.193,0.893,12.063-2.587,18.883-9.407
	c1.954-1.954,4.029-3.907,6.12-5.879c8.31-7.827,16.899-15.913,17.021-23.84c0.067-4.441-2.473-9.173-7.76-14.461
	c-8.88-8.88-14.597-22.12-17.06-39.453C49.316,60.635,31.259,85.003,21.579,113.129z"/>
<path style="fill:#FFFFFF;" d="M118.344,277.708c0,0,15.382-46.145,0-53.835c-15.382-7.69-30.763,0-38.455-23.072
	c-7.69-23.072,0-30.763,23.072-38.455c23.072-7.69,53.835,0,61.527,30.763c7.69,30.763-7.69,46.145-15.382,76.908
	C143.51,292.401,118.344,277.708,118.344,277.708z"/>
<path style="fill:#602F75;" d="M134.477,289.269c-9.523,0-18.333-4.941-19.577-5.666c-2.787-1.626-4.053-4.987-3.033-8.047
	c6.364-19.14,9.18-42.701,3.424-45.58c-4.089-2.046-8.327-2.794-12.81-3.581c-10.061-1.773-22.579-3.98-29.066-23.433
	c-9.523-28.573,2.83-38.907,27.39-47.094c15.527-5.18,32.819-3.867,46.24,3.5c12.167,6.687,20.49,17.78,24.067,32.087
	c5.757,23.02-0.391,38.653-6.897,55.207c-3.014,7.66-6.127,15.58-8.484,25.006c-2.466,9.866-8.124,14.1-12.436,15.92
	C140.419,288.796,137.414,289.269,134.477,289.269z M118.344,277.71h0.067H118.344z M126.65,274.01
	c3.616,1.319,8.201,2.326,11.36,0.986c0.78-0.326,3.151-1.333,4.473-6.634c2.574-10.293,6.001-19.007,9.023-26.701
	c6.176-15.706,11.054-28.121,6.357-46.899c-2.666-10.667-8.52-18.553-17.393-23.421c-10.143-5.586-23.363-6.513-35.35-2.526
	c-21.48,7.166-24.634,12.18-18.753,29.827c3.913,11.74,9.086,12.653,18.483,14.307c5.004,0.881,10.677,1.881,16.546,4.813
	C138.15,226.143,131.34,257.982,126.65,274.01z"/>
<path style="fill:#FFFFFF;" d="M237.317,30.424c-22.955,22.446-47.904,50.504-34.376,55.013
	c23.072,7.69,38.455,15.382,38.455,15.382s-7.69,23.072-30.763,23.072s-53.835,0-53.835,7.69s46.145,38.455,46.145,46.145
	s9.943,40.706,15.382,46.145c7.69,7.69,30.763,15.382,38.455-15.382c7.69-30.763,0-53.835,15.382-61.527
	c8.6-4.299,19.596-25.226,27.628-42.849C287.473,73.292,265.388,47.433,237.317,30.424z"/>
<path style="fill:#602F75;" d="M235.097,237.582c-8.687,0-16.867-4.147-21.6-8.887c-6.857-6.854-16.613-39.813-17.336-49.893
	c-2.19-3.514-13.251-12.727-20.659-18.9c-18.913-15.759-25.53-21.854-25.53-28.32c0-13.846,21.92-14.52,60.663-14.52
	c11.551,0,18.266-7.547,21.606-12.979c-6.436-2.867-17.556-7.533-31.457-12.174c-4.309-1.434-7.211-4.5-8.163-8.634
	c-1.737-7.547,1.647-20.301,39.924-57.733c2.227-2.173,5.644-2.567,8.313-0.959c29.367,17.801,52.547,45.146,65.27,77
	c0.689,1.734,0.643,3.666-0.126,5.367c-16.256,35.666-25.356,43.401-30.787,46.119c-5.746,2.874-6.456,9.953-7.4,24.407
	c-0.59,9.054-1.326,20.32-4.413,32.667c-4.57,18.28-14.167,24.513-21.41,26.52C239.689,237.296,237.377,237.582,235.097,237.582z
	 M165.687,133.049c4.134,4.347,12.544,11.353,18.553,16.36c18.913,15.759,25.53,21.854,25.53,28.32
	c0,6.501,9.429,36.966,13.404,41.341c2.794,2.794,9.353,6.026,15.174,4.434c6.784-1.881,10.167-10.1,11.807-16.667
	c2.79-11.153,3.453-21.299,4.036-30.247c1.024-15.681,1.906-29.227,14.916-35.734c1.353-0.674,8.697-5.593,23.236-36.893
	c-11.153-26.341-30.174-49.133-54.086-64.874c-26.776,26.701-31.384,37.14-32.16,40.201c22.757,7.666,37.717,15.101,38.351,15.42
	c3.04,1.521,4.5,5.04,3.427,8.267c-0.377,1.133-9.564,27.74-37.239,27.74C198.48,130.716,174.954,130.716,165.687,133.049z
	 M205.947,80.322h0.067H205.947z"/>
<path style="fill:#FFE600;" d="M395.947,407.889c-3.494,0-6.99-1.333-9.653-4l-98.987-98.987c-5.333-5.333-5.333-13.974,0-19.306
	c5.327-5.333,13.979-5.333,19.306,0l98.987,98.987c5.333,5.333,5.333,13.974,0,19.306
	C402.937,406.556,399.44,407.889,395.947,407.889z"/>
<path style="fill:#602F75;" d="M395.947,414.716c-5.473,0-10.617-2.133-14.483-6.001l-98.983-98.987
	c-7.987-7.987-7.987-20.973,0-28.96c7.726-7.733,21.229-7.733,28.964,0l98.983,98.987c7.987,7.987,7.987,20.973,0,28.96
	C406.564,412.582,401.42,414.716,395.947,414.716z M296.96,288.422c-1.823,0-3.536,0.707-4.823,2
	c-2.664,2.661-2.664,6.994-0.003,9.653l98.987,98.987c2.58,2.587,7.076,2.587,9.649,0c2.664-2.661,2.664-6.994,0.003-9.653
	l-98.987-98.987C300.496,289.129,298.783,288.422,296.96,288.422z"/>
<circle style="fill:#FFFFFF;" cx="225.275" cy="223.569" r="92.16"/>
<path style="fill:#602F75;" d="M225.28,322.556c-54.579,0-98.987-44.407-98.987-98.987s44.407-98.987,98.987-98.987
	s98.987,44.407,98.987,98.987S279.859,322.556,225.28,322.556z M225.28,138.236c-47.053,0-85.333,38.281-85.333,85.333
	s38.281,85.333,85.333,85.333s85.333-38.281,85.333-85.333S272.333,138.236,225.28,138.236z"/>
<circle style="fill:#EA3457;" cx="211.622" cy="209.916" r="37.547"/>
<path style="fill:#602F75;" d="M153.6,230.396c-3.77,0-6.827-3.053-6.827-6.827c0-42.82,33.514-77.286,76.293-78.479
	c3.743,0.02,6.907,2.867,7.013,6.641c0.106,3.767-2.867,6.907-6.634,7.013c-35.34,0.98-63.02,29.454-63.02,64.826
	C160.427,227.342,157.37,230.396,153.6,230.396z"/>
<g>
</g>
<g>
</g>
<g>
</g>
<g>
</g>
<g>
</g>
<g>
</g>
<g>
</g>
<g>
</g>
<g>
</g>
<g>
</g>
<g>
</g>
<g>
</g>
<g>
</g>
<g>
</g>
<g>
</g>
</svg>
