<?xml version="1.0" encoding="iso-8859-1"?>
<!-- Generator: Adobe Illustrator 18.0.0, SVG Export Plug-In . SVG Version: 6.00 Build 0)  -->
<!DOCTYPE svg PUBLIC "-//W3C//DTD SVG 1.1//EN" "http://www.w3.org/Graphics/SVG/1.1/DTD/svg11.dtd">
<svg version="1.1" id="Capa_1" xmlns="http://www.w3.org/2000/svg" xmlns:xlink="http://www.w3.org/1999/xlink" x="0px" y="0px"
	 viewBox="0 0 58 58" style="enable-background:new 0 0 58 58;" xml:space="preserve">
<g>
	<path style="fill:#C69E71;" d="M0,0v58h58L0,0z M12,28.971L29.029,46H12V28.971z"/>
	<path style="fill:#A16538;" d="M4.958,9.201c-0.391,0.391-0.391,1.023,0,1.414c0.195,0.195,0.451,0.293,0.707,0.293
		s0.512-0.098,0.707-0.293l2.121-2.121l0,0L7.08,7.08l0,0L4.958,9.201z"/>
	<path style="fill:#A16538;" d="M7.08,15.564c0.195,0.195,0.451,0.293,0.707,0.293s0.512-0.098,0.707-0.293l3.536-3.535
		l-1.414-1.414L7.08,14.15C6.689,14.541,6.689,15.174,7.08,15.564z"/>
	<path style="fill:#A16538;" d="M12.029,17.687c0.195,0.195,0.451,0.293,0.707,0.293s0.512-0.098,0.707-0.293l2.121-2.122
		l-1.414-1.414l-2.121,2.122C11.639,16.663,11.639,17.296,12.029,17.687z"/>
	<path style="fill:#A16538;" d="M14.151,22.636c0.195,0.195,0.451,0.293,0.707,0.293s0.512-0.098,0.707-0.293l3.536-3.535
		l-1.414-1.414l-3.536,3.535C13.76,21.612,13.76,22.245,14.151,22.636z"/>
	<path style="fill:#A16538;" d="M19.101,24.757c0.195,0.195,0.451,0.293,0.707,0.293s0.512-0.098,0.707-0.293l2.121-2.121
		l-1.414-1.414l-2.121,2.121C18.71,23.733,18.71,24.366,19.101,24.757z"/>
	<path style="fill:#A16538;" d="M21.222,28.293c-0.391,0.391-0.391,1.023,0,1.414C21.417,29.902,21.673,30,21.929,30
		s0.512-0.098,0.707-0.293l3.536-3.535l0,0l-1.414-1.414l0,0L21.222,28.293z"/>
	<path style="fill:#A16538;" d="M26.172,31.828c0.195,0.195,0.451,0.293,0.707,0.293s0.512-0.098,0.707-0.293l2.121-2.121
		l-1.414-1.414l-2.121,2.121C25.781,30.805,25.781,31.438,26.172,31.828z"/>
	<path style="fill:#A16538;" d="M28.293,36.778c0.195,0.195,0.451,0.293,0.707,0.293s0.512-0.098,0.707-0.293l3.535-3.536
		l-1.414-1.414l-3.535,3.536C27.902,35.755,27.902,36.388,28.293,36.778z"/>
	<path style="fill:#A16538;" d="M33.243,38.899c0.195,0.195,0.451,0.293,0.707,0.293s0.512-0.098,0.707-0.293l2.122-2.121
		l-1.414-1.414l-2.122,2.121C32.852,37.876,32.852,38.509,33.243,38.899z"/>
	<path style="fill:#A16538;" d="M35.364,43.85c0.195,0.195,0.451,0.293,0.707,0.293s0.512-0.098,0.707-0.293l3.535-3.536
		l-1.414-1.414l-3.535,3.536C34.974,42.826,34.974,43.459,35.364,43.85z"/>
	<path style="fill:#A16538;" d="M40.314,44.557c-0.391,0.391-0.391,1.023,0,1.414c0.195,0.195,0.451,0.293,0.707,0.293
		s0.512-0.098,0.707-0.293l2.121-2.121l0,0l-1.414-1.414l0,0L40.314,44.557z"/>
	<path style="fill:#A16538;" d="M42.435,50.92c0.195,0.195,0.451,0.293,0.707,0.293s0.512-0.098,0.707-0.293l3.536-3.535
		l-1.414-1.414l-3.536,3.535C42.044,49.896,42.044,50.529,42.435,50.92z"/>
	<path style="fill:#A16538;" d="M47.385,53.042c0.195,0.195,0.451,0.293,0.707,0.293s0.512-0.098,0.707-0.293l2.121-2.122
		l-1.414-1.414l-2.121,2.122C46.994,52.019,46.994,52.651,47.385,53.042z"/>
</g>
<g>
</g>
<g>
</g>
<g>
</g>
<g>
</g>
<g>
</g>
<g>
</g>
<g>
</g>
<g>
</g>
<g>
</g>
<g>
</g>
<g>
</g>
<g>
</g>
<g>
</g>
<g>
</g>
<g>
</g>
</svg>
