<?xml version="1.0" encoding="iso-8859-1"?>
<!-- Generator: Adobe Illustrator 19.0.0, SVG Export Plug-In . SVG Version: 6.00 Build 0)  -->
<svg version="1.1" id="Layer_1" xmlns="http://www.w3.org/2000/svg" xmlns:xlink="http://www.w3.org/1999/xlink" x="0px" y="0px"
	 viewBox="0 0 512 512" style="enable-background:new 0 0 512 512;" xml:space="preserve">
<g>
	<path style="fill:#5ECB66;" d="M220.323,19.934c-0.406,0.675-0.728,1.39-1.311,1.974L22.156,218.764
		c-0.579,0.579-1.29,0.897-1.96,1.302v90.873l291.01-291.005H220.323z"/>
	<polygon style="fill:#5ECB66;" points="281.698,167.475 325.115,124.058 325.115,33.843 191.48,167.475 	"/>
	<path style="fill:#5ECB66;" d="M20.196,192.906L193.168,19.934h-81.019c-0.398,0.651-0.704,1.344-1.267,1.907l-90.686,90.691
		V192.906z"/>
	<polygon style="fill:#5ECB66;" points="167.737,191.218 34.1,324.853 124.321,324.853 167.737,281.436 	"/>
	<polygon style="fill:#5ECB66;" points="309.515,167.475 325.115,167.475 325.115,151.876 	"/>
</g>
<path style="fill:#EAEAEA;" d="M344.787,334.689c0,5.432-4.399,9.836-9.836,9.836H187.41v147.541h304.918V187.148H344.787V334.689z"
	/>
<g>
	<polygon style="fill:#5ECB66;" points="152.138,324.853 167.737,324.853 167.737,309.253 	"/>
	<polygon style="fill:#5ECB66;" points="84.972,19.934 20.196,19.934 20.196,84.714 	"/>
</g>
<path style="fill:#314E55;" d="M502.164,167.475H344.787V10.098c0-5.432-4.399-9.836-9.836-9.836H10.36
	c-5.437,0-9.836,4.404-9.836,9.836v95.818c-0.699,2.054-0.699,4.261,0,6.316v222.457c0,5.432,4.399,9.836,9.836,9.836h157.377
	v157.377c0,5.432,4.399,9.836,9.836,9.836h324.591c5.437,0,9.836-4.404,9.836-9.836V177.311
	C512,171.879,507.601,167.475,502.164,167.475z M34.1,324.853l133.637-133.635v90.218l-43.417,43.417H34.1z M112.149,19.934h81.019
	L20.196,192.906v-80.375l90.686-90.691C111.445,21.278,111.751,20.585,112.149,19.934z M20.196,220.066
	c0.67-0.405,1.381-0.723,1.96-1.302L219.012,21.908c0.583-0.584,0.905-1.299,1.311-1.974h90.883L20.196,310.939V220.066z
	 M325.115,124.058l-43.417,43.417H191.48L325.115,33.843V124.058z M187.41,187.148h137.705v137.705H187.41L187.41,187.148
	L187.41,187.148z M309.515,167.475l15.6-15.6v15.6H309.515z M84.972,19.934l-64.776,64.78v-64.78H84.972z M152.138,324.853
	l15.6-15.6v15.6H152.138z M492.328,492.066H187.41V344.525h147.541c5.437,0,9.836-4.404,9.836-9.836V187.148h147.541V492.066z"/>
<g>
</g>
<g>
</g>
<g>
</g>
<g>
</g>
<g>
</g>
<g>
</g>
<g>
</g>
<g>
</g>
<g>
</g>
<g>
</g>
<g>
</g>
<g>
</g>
<g>
</g>
<g>
</g>
<g>
</g>
</svg>
